<mxfile host="app.diagrams.net" modified="2022-04-27T04:45:55.822Z" agent="5.0 (Windows NT 10.0; Win64; x64) AppleWebKit/537.36 (KHTML, like Gecko) Chrome/100.0.4896.127 Safari/537.36" etag="Hefg4OVowszUcdGbwsFU" version="17.4.6" type="github">
  <diagram id="H8DLRT5V--WeARVmAtFN" name="Page-1">
    <mxGraphModel dx="2272" dy="754" grid="1" gridSize="10" guides="1" tooltips="1" connect="1" arrows="1" fold="1" page="1" pageScale="1" pageWidth="850" pageHeight="1100" math="0" shadow="0">
      <root>
        <mxCell id="0" />
        <mxCell id="1" parent="0" />
        <mxCell id="3nGKp-kDePq4omz2f8dp-20" value="" style="edgeStyle=orthogonalEdgeStyle;shape=link;rounded=0;orthogonalLoop=1;jettySize=auto;html=1;" edge="1" parent="1" source="3nGKp-kDePq4omz2f8dp-1" target="3nGKp-kDePq4omz2f8dp-4">
          <mxGeometry relative="1" as="geometry" />
        </mxCell>
        <mxCell id="3nGKp-kDePq4omz2f8dp-1" value="TPL-3&lt;br&gt;" style="fontColor=#0066CC;verticalAlign=top;verticalLabelPosition=bottom;labelPosition=center;align=center;html=1;outlineConnect=0;fillColor=#CCCCCC;strokeColor=#6881B3;gradientColor=none;gradientDirection=north;strokeWidth=2;shape=mxgraph.networks.switch;" vertex="1" parent="1">
          <mxGeometry x="70" y="360" width="100" height="30" as="geometry" />
        </mxCell>
        <mxCell id="3nGKp-kDePq4omz2f8dp-2" value="TPL-8" style="fontColor=#0066CC;verticalAlign=top;verticalLabelPosition=bottom;labelPosition=center;align=center;html=1;outlineConnect=0;fillColor=#CCCCCC;strokeColor=#6881B3;gradientColor=none;gradientDirection=north;strokeWidth=2;shape=mxgraph.networks.switch;" vertex="1" parent="1">
          <mxGeometry x="90" y="1000" width="100" height="30" as="geometry" />
        </mxCell>
        <mxCell id="3nGKp-kDePq4omz2f8dp-29" value="" style="edgeStyle=orthogonalEdgeStyle;shape=link;rounded=0;orthogonalLoop=1;jettySize=auto;html=1;" edge="1" parent="1" source="3nGKp-kDePq4omz2f8dp-3" target="3nGKp-kDePq4omz2f8dp-8">
          <mxGeometry relative="1" as="geometry" />
        </mxCell>
        <mxCell id="3nGKp-kDePq4omz2f8dp-3" value="TPL-7" style="fontColor=#0066CC;verticalAlign=top;verticalLabelPosition=bottom;labelPosition=center;align=center;html=1;outlineConnect=0;fillColor=#CCCCCC;strokeColor=#6881B3;gradientColor=none;gradientDirection=north;strokeWidth=2;shape=mxgraph.networks.switch;" vertex="1" parent="1">
          <mxGeometry x="80" y="870" width="100" height="30" as="geometry" />
        </mxCell>
        <mxCell id="3nGKp-kDePq4omz2f8dp-21" value="" style="edgeStyle=orthogonalEdgeStyle;shape=link;rounded=0;orthogonalLoop=1;jettySize=auto;html=1;" edge="1" parent="1" source="3nGKp-kDePq4omz2f8dp-4" target="3nGKp-kDePq4omz2f8dp-6">
          <mxGeometry relative="1" as="geometry" />
        </mxCell>
        <mxCell id="3nGKp-kDePq4omz2f8dp-4" value="TPL-4" style="fontColor=#0066CC;verticalAlign=top;verticalLabelPosition=bottom;labelPosition=center;align=center;html=1;outlineConnect=0;fillColor=#CCCCCC;strokeColor=#6881B3;gradientColor=none;gradientDirection=north;strokeWidth=2;shape=mxgraph.networks.switch;" vertex="1" parent="1">
          <mxGeometry x="70" y="490" width="100" height="30" as="geometry" />
        </mxCell>
        <mxCell id="3nGKp-kDePq4omz2f8dp-18" value="" style="edgeStyle=orthogonalEdgeStyle;shape=link;rounded=0;orthogonalLoop=1;jettySize=auto;html=1;" edge="1" parent="1" source="3nGKp-kDePq4omz2f8dp-5" target="3nGKp-kDePq4omz2f8dp-17">
          <mxGeometry relative="1" as="geometry" />
        </mxCell>
        <mxCell id="3nGKp-kDePq4omz2f8dp-5" value="TPL-2" style="fontColor=#0066CC;verticalAlign=top;verticalLabelPosition=bottom;labelPosition=center;align=center;html=1;outlineConnect=0;fillColor=#CCCCCC;strokeColor=#6881B3;gradientColor=none;gradientDirection=north;strokeWidth=2;shape=mxgraph.networks.switch;" vertex="1" parent="1">
          <mxGeometry x="60" y="250" width="100" height="30" as="geometry" />
        </mxCell>
        <mxCell id="3nGKp-kDePq4omz2f8dp-27" value="" style="edgeStyle=orthogonalEdgeStyle;shape=link;rounded=0;orthogonalLoop=1;jettySize=auto;html=1;" edge="1" parent="1" source="3nGKp-kDePq4omz2f8dp-6" target="3nGKp-kDePq4omz2f8dp-26">
          <mxGeometry relative="1" as="geometry" />
        </mxCell>
        <mxCell id="3nGKp-kDePq4omz2f8dp-6" value="TPL-5" style="fontColor=#0066CC;verticalAlign=top;verticalLabelPosition=bottom;labelPosition=center;align=center;html=1;outlineConnect=0;fillColor=#CCCCCC;strokeColor=#6881B3;gradientColor=none;gradientDirection=north;strokeWidth=2;shape=mxgraph.networks.switch;" vertex="1" parent="1">
          <mxGeometry x="70" y="620" width="100" height="30" as="geometry" />
        </mxCell>
        <mxCell id="3nGKp-kDePq4omz2f8dp-14" style="edgeStyle=orthogonalEdgeStyle;shape=link;rounded=0;orthogonalLoop=1;jettySize=auto;html=1;" edge="1" parent="1" source="3nGKp-kDePq4omz2f8dp-7" target="3nGKp-kDePq4omz2f8dp-15">
          <mxGeometry relative="1" as="geometry">
            <mxPoint x="110" y="60" as="targetPoint" />
          </mxGeometry>
        </mxCell>
        <mxCell id="3nGKp-kDePq4omz2f8dp-7" value="TPL-1" style="fontColor=#0066CC;verticalAlign=top;verticalLabelPosition=bottom;labelPosition=center;align=center;html=1;outlineConnect=0;fillColor=#CCCCCC;strokeColor=#6881B3;gradientColor=none;gradientDirection=north;strokeWidth=2;shape=mxgraph.networks.switch;" vertex="1" parent="1">
          <mxGeometry x="60" y="130" width="100" height="30" as="geometry" />
        </mxCell>
        <mxCell id="3nGKp-kDePq4omz2f8dp-41" value="" style="edgeStyle=none;shape=link;rounded=0;orthogonalLoop=1;jettySize=auto;html=1;" edge="1" parent="1" source="3nGKp-kDePq4omz2f8dp-8" target="3nGKp-kDePq4omz2f8dp-40">
          <mxGeometry relative="1" as="geometry" />
        </mxCell>
        <mxCell id="3nGKp-kDePq4omz2f8dp-8" value="TPL-6" style="fontColor=#0066CC;verticalAlign=top;verticalLabelPosition=bottom;labelPosition=center;align=center;html=1;outlineConnect=0;fillColor=#CCCCCC;strokeColor=#6881B3;gradientColor=none;gradientDirection=north;strokeWidth=2;shape=mxgraph.networks.switch;" vertex="1" parent="1">
          <mxGeometry x="80" y="740" width="100" height="30" as="geometry" />
        </mxCell>
        <mxCell id="3nGKp-kDePq4omz2f8dp-10" value="" style="shape=flexArrow;endArrow=classic;html=1;rounded=0;endWidth=22;endSize=4.62;" edge="1" parent="1">
          <mxGeometry width="50" height="50" relative="1" as="geometry">
            <mxPoint x="590" y="160" as="sourcePoint" />
            <mxPoint x="480" y="160" as="targetPoint" />
            <Array as="points">
              <mxPoint x="540" y="160" />
            </Array>
          </mxGeometry>
        </mxCell>
        <mxCell id="3nGKp-kDePq4omz2f8dp-11" value="cửa vào" style="text;html=1;align=center;verticalAlign=middle;resizable=0;points=[];autosize=1;strokeColor=none;fillColor=none;" vertex="1" parent="1">
          <mxGeometry x="480" y="80" width="60" height="20" as="geometry" />
        </mxCell>
        <mxCell id="3nGKp-kDePq4omz2f8dp-15" value="mixd" style="rounded=1;whiteSpace=wrap;html=1;fillColor=#eeeeee;strokeColor=#36393d;" vertex="1" parent="1">
          <mxGeometry x="-70" y="130" width="70" height="30" as="geometry" />
        </mxCell>
        <mxCell id="3nGKp-kDePq4omz2f8dp-16" value="1" style="text;html=1;align=center;verticalAlign=middle;resizable=0;points=[];autosize=1;strokeColor=none;fillColor=none;" vertex="1" parent="1">
          <mxGeometry x="110" y="110" width="20" height="20" as="geometry" />
        </mxCell>
        <mxCell id="3nGKp-kDePq4omz2f8dp-17" value="mixd" style="whiteSpace=wrap;html=1;verticalAlign=top;fillColor=#CCCCCC;strokeColor=#6881B3;fontColor=#0066CC;gradientColor=none;gradientDirection=north;strokeWidth=2;" vertex="1" parent="1">
          <mxGeometry x="-80" y="247.5" width="80" height="35" as="geometry" />
        </mxCell>
        <mxCell id="3nGKp-kDePq4omz2f8dp-19" value="11" style="text;html=1;align=center;verticalAlign=middle;resizable=0;points=[];autosize=1;strokeColor=none;fillColor=none;" vertex="1" parent="1">
          <mxGeometry x="155" y="240" width="30" height="20" as="geometry" />
        </mxCell>
        <mxCell id="3nGKp-kDePq4omz2f8dp-22" value="1" style="text;html=1;align=center;verticalAlign=middle;resizable=0;points=[];autosize=1;strokeColor=none;fillColor=none;" vertex="1" parent="1">
          <mxGeometry x="120" y="410" width="20" height="20" as="geometry" />
        </mxCell>
        <mxCell id="3nGKp-kDePq4omz2f8dp-23" value="7" style="text;html=1;align=center;verticalAlign=middle;resizable=0;points=[];autosize=1;strokeColor=none;fillColor=none;" vertex="1" parent="1">
          <mxGeometry x="120" y="470" width="20" height="20" as="geometry" />
        </mxCell>
        <mxCell id="3nGKp-kDePq4omz2f8dp-24" value="1" style="text;html=1;align=center;verticalAlign=middle;resizable=0;points=[];autosize=1;strokeColor=none;fillColor=none;" vertex="1" parent="1">
          <mxGeometry x="120" y="540" width="20" height="20" as="geometry" />
        </mxCell>
        <mxCell id="3nGKp-kDePq4omz2f8dp-25" value="24" style="text;html=1;align=center;verticalAlign=middle;resizable=0;points=[];autosize=1;strokeColor=none;fillColor=none;" vertex="1" parent="1">
          <mxGeometry x="115" y="600" width="30" height="20" as="geometry" />
        </mxCell>
        <mxCell id="3nGKp-kDePq4omz2f8dp-26" value="mixd" style="whiteSpace=wrap;html=1;verticalAlign=top;fillColor=#CCCCCC;strokeColor=#6881B3;fontColor=#0066CC;gradientColor=none;gradientDirection=north;strokeWidth=2;" vertex="1" parent="1">
          <mxGeometry x="-80" y="616.25" width="80" height="37.5" as="geometry" />
        </mxCell>
        <mxCell id="3nGKp-kDePq4omz2f8dp-35" value="" style="edgeStyle=orthogonalEdgeStyle;shape=link;rounded=0;orthogonalLoop=1;jettySize=auto;html=1;endArrow=none;" edge="1" parent="1" source="3nGKp-kDePq4omz2f8dp-2">
          <mxGeometry relative="1" as="geometry">
            <mxPoint x="240" y="760" as="targetPoint" />
            <mxPoint x="90" y="1015" as="sourcePoint" />
          </mxGeometry>
        </mxCell>
        <mxCell id="3nGKp-kDePq4omz2f8dp-37" value="8" style="text;html=1;align=center;verticalAlign=middle;resizable=0;points=[];autosize=1;strokeColor=none;fillColor=none;" vertex="1" parent="1">
          <mxGeometry x="140" y="790" width="20" height="20" as="geometry" />
        </mxCell>
        <mxCell id="3nGKp-kDePq4omz2f8dp-38" value="1" style="text;html=1;align=center;verticalAlign=middle;resizable=0;points=[];autosize=1;strokeColor=none;fillColor=none;" vertex="1" parent="1">
          <mxGeometry x="140" y="850" width="20" height="20" as="geometry" />
        </mxCell>
        <mxCell id="3nGKp-kDePq4omz2f8dp-39" value="1" style="text;html=1;align=center;verticalAlign=middle;resizable=0;points=[];autosize=1;strokeColor=none;fillColor=none;" vertex="1" parent="1">
          <mxGeometry x="60" y="990" width="20" height="20" as="geometry" />
        </mxCell>
        <mxCell id="3nGKp-kDePq4omz2f8dp-40" value="" style="shape=waypoint;sketch=0;size=6;pointerEvents=1;points=[];fillColor=#CCCCCC;resizable=0;rotatable=0;perimeter=centerPerimeter;snapToPoint=1;verticalAlign=top;strokeColor=#6881B3;fontColor=#0066CC;gradientColor=none;gradientDirection=north;strokeWidth=2;" vertex="1" parent="1">
          <mxGeometry x="220" y="735" width="40" height="40" as="geometry" />
        </mxCell>
        <mxCell id="3nGKp-kDePq4omz2f8dp-42" value="" style="edgeStyle=orthogonalEdgeStyle;shape=link;rounded=0;orthogonalLoop=1;jettySize=auto;html=1;" edge="1" parent="1" target="3nGKp-kDePq4omz2f8dp-43">
          <mxGeometry relative="1" as="geometry">
            <mxPoint x="80" y="751.25" as="sourcePoint" />
          </mxGeometry>
        </mxCell>
        <mxCell id="3nGKp-kDePq4omz2f8dp-43" value="mixd" style="whiteSpace=wrap;html=1;verticalAlign=top;fillColor=#CCCCCC;strokeColor=#6881B3;fontColor=#0066CC;gradientColor=none;gradientDirection=north;strokeWidth=2;" vertex="1" parent="1">
          <mxGeometry x="-70" y="732.5" width="80" height="37.5" as="geometry" />
        </mxCell>
      </root>
    </mxGraphModel>
  </diagram>
</mxfile>
